<svg xmlns="http://www.w3.org/2000/svg" width="65" height="65" viewBox="0 0 65 65">
  <g id="Group_1273" data-name="Group 1273" transform="translate(-155 -5199)">
    <g id="Ellipse_70" data-name="Ellipse 70" transform="translate(155 5199)" fill="#fff" stroke="#141414" stroke-width="1">
      <circle cx="32.5" cy="32.5" r="32.5" stroke="none"/>
      <circle cx="32.5" cy="32.5" r="32" fill="none"/>
    </g>
    <path id="Union_234" data-name="Union 234" d="M7.917,23.356,6.644,19.217a1.921,1.921,0,0,1-.018-1.075l.548-2.01.783.213-.548,2.01a1.12,1.12,0,0,0,.01.622l1.274,4.139a.606.606,0,0,0,.582.43h4.2a.608.608,0,0,0,.577-.416l.881-2.642a1.124,1.124,0,0,0,.051-.476L13.806,9.382a.4.4,0,0,1,.04-.226l1.581-3.162V3.736A.606.606,0,0,0,15.2,3.26l-1.5-1.2-4.2.969a.609.609,0,0,0-.468.665l.706,6a.4.4,0,0,1-.011.154l-1.55,5.684L7.4,15.321,8.925,9.713,8.5,6.09H7.308V7.511A1.423,1.423,0,0,1,5.887,8.932H4.669A1.423,1.423,0,0,1,3.385,8.12H2.639A1.423,1.423,0,0,1,1.218,6.7V6.09H.406A.406.406,0,0,1,0,5.684V3.248a.406.406,0,0,1,.406-.406h.812V2.233A1.423,1.423,0,0,1,2.639.812h.747A1.423,1.423,0,0,1,4.669,0H5.887A1.423,1.423,0,0,1,7.308,1.421V2.842H8.454a1.417,1.417,0,0,1,.866-.6l4.392-1.014a.4.4,0,0,1,.345.079l1.649,1.319a1.408,1.408,0,0,1,.218.215h1.128V1.421A1.423,1.423,0,0,1,18.472,0H19.69a1.423,1.423,0,0,1,1.284.812h.747a1.423,1.423,0,0,1,1.421,1.421v.609h.812a.406.406,0,0,1,.406.406V5.684a.406.406,0,0,1-.406.406h-.812V6.7A1.423,1.423,0,0,1,21.72,8.12h-.747a1.423,1.423,0,0,1-1.284.812H18.472a1.423,1.423,0,0,1-1.421-1.421V6.09H16.24a.406.406,0,0,1-.044.182l-1.57,3.14,1.167,10.51a1.932,1.932,0,0,1-.087.823l-.881,2.642a1.419,1.419,0,0,1-1.348.972H9.269A1.414,1.414,0,0,1,7.917,23.356ZM17.863,1.421v6.09a.61.61,0,0,0,.609.609H19.69a.61.61,0,0,0,.609-.609V4.06h.812V7.308h.609a.61.61,0,0,0,.609-.609V2.233a.61.61,0,0,0-.609-.609h-.609V3.248H20.3V1.421A.61.61,0,0,0,19.69.812H18.472A.61.61,0,0,0,17.863,1.421Zm-13.8,0v6.09a.61.61,0,0,0,.609.609H5.887A.61.61,0,0,0,6.5,7.511V1.421A.61.61,0,0,0,5.887.812H4.669A.61.61,0,0,0,4.06,1.421Zm-2.03.812V6.7a.609.609,0,0,0,.608.609h.609V1.624H2.639A.609.609,0,0,0,2.03,2.233ZM23.141,5.278h.406V3.654h-.406Zm-6.9,0h.811V3.654H16.24Zm-8.932,0H8.4L8.229,3.792c-.006-.046-.009-.092-.01-.138H7.308Zm-6.5,0h.406V3.654H.812ZM9.38,21.741l1.41-2.819a1.626,1.626,0,0,0,.172-.726V13.8h.812V18.2a2.457,2.457,0,0,1-.257,1.089L10.107,22.1Z" transform="translate(175.321 5219.326)" fill="#141414"/>
  </g>
</svg>
