<svg xmlns="http://www.w3.org/2000/svg" width="65" height="65" viewBox="0 0 65 65">
  <g id="Group_1270" data-name="Group 1270" transform="translate(-155 -5059)">
    <g id="Ellipse_67" data-name="Ellipse 67" transform="translate(155 5059)" fill="#fff" stroke="#141414" stroke-width="1">
      <circle cx="32.5" cy="32.5" r="32.5" stroke="none"/>
      <circle cx="32.5" cy="32.5" r="32" fill="none"/>
    </g>
    <path id="Union_235" data-name="Union 235" d="M10.947,22.3a3.838,3.838,0,0,1-3.331,2.07,3.818,3.818,0,0,1-3.289-1.9H4.284A3.455,3.455,0,0,1,.995,18.492a3.285,3.285,0,0,1-.382-4.266A3.805,3.805,0,0,1,0,12.185,3.307,3.307,0,0,1,1.206,9.627a3.222,3.222,0,0,1-.254-1.25A3.548,3.548,0,0,1,2.876,5.239,2.852,2.852,0,0,1,5.043,2.127,3.429,3.429,0,0,1,8.091,0a3.344,3.344,0,0,1,2.856,1.714A3.345,3.345,0,0,1,13.8,0a3.428,3.428,0,0,1,3.048,2.127,2.852,2.852,0,0,1,2.166,3.113,3.547,3.547,0,0,1,1.924,3.138,3.217,3.217,0,0,1-.253,1.25,3.308,3.308,0,0,1,1.206,2.558,3.809,3.809,0,0,1-.613,2.041,3.286,3.286,0,0,1-.382,4.266,3.056,3.056,0,0,1,.042.5,3.451,3.451,0,0,1-3.332,3.475h-.043a3.752,3.752,0,0,1-6.62-.165Zm3.808-5.212a.476.476,0,0,1-.476.476,2.859,2.859,0,0,0-2.856,2.856,2.969,2.969,0,0,0,2.856,3,2.863,2.863,0,0,0,2.584-1.66.477.477,0,0,1,.486-.273l.1.013a2.48,2.48,0,0,0,2.541-2.507,2.355,2.355,0,0,0-.074-.558.475.475,0,0,1,.158-.477,2.37,2.37,0,0,0,.867-1.821,2.338,2.338,0,0,0-.349-1.225,3.212,3.212,0,0,1-2.03.749.476.476,0,0,1,0-.952,2.5,2.5,0,0,0,2.38-2.523,2.366,2.366,0,0,0-1.111-2.006.476.476,0,0,1-.159-.637,2.344,2.344,0,0,0,.319-1.165,2.513,2.513,0,0,0-2.38-2.523,2.519,2.519,0,0,0-2.38,2.523.476.476,0,0,1-.952,0A3.451,3.451,0,0,1,17.611,4.9a3.084,3.084,0,0,1,.475.037c0-.013,0-.025,0-.037a1.9,1.9,0,0,0-3.251-1.346.476.476,0,1,1-.673-.673,2.836,2.836,0,0,1,1.579-.8A2.4,2.4,0,0,0,13.8.952a2.519,2.519,0,0,0-2.381,2.523V7.2a1.9,1.9,0,0,1,.952-.256.476.476,0,1,1,0,.952.953.953,0,0,0-.952.952V17.9a3.8,3.8,0,0,1,2.856-1.293A.476.476,0,0,1,14.755,17.087Zm-9.724,4.67a2.864,2.864,0,0,0,2.585,1.66,2.969,2.969,0,0,0,2.856-3,2.859,2.859,0,0,0-2.856-2.856.476.476,0,0,1,0-.952A3.8,3.8,0,0,1,10.471,17.9V8.853A.953.953,0,0,0,9.519,7.9a.476.476,0,0,1,0-.952,1.9,1.9,0,0,1,.952.256V3.475A2.519,2.519,0,0,0,8.091.952,2.4,2.4,0,0,0,6.152,2.081a2.832,2.832,0,0,1,1.578.8.476.476,0,1,1-.673.673A1.9,1.9,0,0,0,3.808,4.9c0,.013,0,.025,0,.037A3.078,3.078,0,0,1,4.284,4.9,3.451,3.451,0,0,1,7.616,8.377a.476.476,0,0,1-.952,0,2.519,2.519,0,0,0-2.38-2.523A2.513,2.513,0,0,0,1.9,8.377a2.346,2.346,0,0,0,.318,1.165.476.476,0,0,1-.159.637A2.367,2.367,0,0,0,.952,12.185a2.5,2.5,0,0,0,2.38,2.523.476.476,0,1,1,0,.952,3.214,3.214,0,0,1-2.03-.749,2.341,2.341,0,0,0-.349,1.225,2.369,2.369,0,0,0,.868,1.821.477.477,0,0,1,.158.477A2.484,2.484,0,0,0,4.445,21.5l.1-.013a.47.47,0,0,1,.053,0A.476.476,0,0,1,5.031,21.757Zm9.248.233a3.451,3.451,0,0,1,3.332-3.475.476.476,0,0,1,0,.952,2.519,2.519,0,0,0-2.38,2.523.476.476,0,0,1-.952,0Zm-7.616,0a2.519,2.519,0,0,0-2.38-2.523.476.476,0,0,1,0-.952A3.451,3.451,0,0,1,7.616,21.99a.476.476,0,0,1-.952,0ZM16.7,17.348a3.324,3.324,0,0,0-2.9-1.688.476.476,0,0,1,0-.952,4.275,4.275,0,0,1,3.727,2.171.476.476,0,0,1-.829.47Zm-12.158.179a.476.476,0,0,1-.179-.649,4.274,4.274,0,0,1,3.726-2.171.476.476,0,1,1,0,.952,3.325,3.325,0,0,0-2.9,1.688.476.476,0,0,1-.649.179Zm9.778-5.847a3.325,3.325,0,0,1-1.788-.82.476.476,0,0,1,.635-.709,2.38,2.38,0,0,0,3.966-1.774.476.476,0,0,1,.952,0A3.336,3.336,0,0,1,15.3,11.664a1.43,1.43,0,0,0,1.361,1,.476.476,0,0,1,0,.952A2.384,2.384,0,0,1,14.322,11.68ZM4.76,13.137a.476.476,0,0,1,.476-.476,1.431,1.431,0,0,0,1.362-1A3.337,3.337,0,0,1,3.808,8.377a.476.476,0,0,1,.952,0,2.384,2.384,0,0,0,3.966,1.774.476.476,0,1,1,.635.709,3.324,3.324,0,0,1-1.788.82,2.384,2.384,0,0,1-2.337,1.933A.476.476,0,0,1,4.76,13.137Zm8.091-8.711a.476.476,0,1,1,.476.476A.477.477,0,0,1,12.851,4.426Zm-4.76,0a.476.476,0,1,1,.476.476A.476.476,0,0,1,8.091,4.426Z" transform="translate(176.553 5079.314)" fill="#141414"/>
  </g>
</svg>
