<svg xmlns="http://www.w3.org/2000/svg" width="65" height="65" viewBox="0 0 65 65">
  <g id="Group_1269" data-name="Group 1269" transform="translate(-51 -5059)">
    <g id="Group_1268" data-name="Group 1268" transform="translate(51 5059)">
      <g id="Ellipse_66" data-name="Ellipse 66" fill="#fff" stroke="#141414" stroke-width="1">
        <circle cx="32.5" cy="32.5" r="32.5" stroke="none"/>
        <circle cx="32.5" cy="32.5" r="32" fill="none"/>
      </g>
      <path id="Union_233" data-name="Union 233" d="M4.781,24.286.2,21.042a.472.472,0,0,1-.113-.652c.1-.147,9.434-13.615,9.857-14.227a.464.464,0,0,1,.251-.181l1.536-.452a.457.457,0,0,1,.395.066.468.468,0,0,1,.2.352l.151,2.309,2.2-.646a.456.456,0,0,1,.395.066.467.467,0,0,1,.2.353l.106,1.613a.47.47,0,0,1-.083.3L7.767,20.791a.46.46,0,0,1-.645.115.472.472,0,0,1-.114-.652l3.179-4.588L6.363,12.96,1.109,20.544,4.933,23.25l.946-1.365a.459.459,0,0,1,.644-.114.47.47,0,0,1,.114.651L5.426,24.17a.459.459,0,0,1-.645.115Zm5.826-17.45L6.894,12.194,10.718,14.9l3.713-5.358-.057-.868-2.2.646a.463.463,0,0,1-.4-.066.47.47,0,0,1-.2-.353l-.151-2.309Zm15.483,16.9L16.4,9.748a.472.472,0,0,1,0-.541.462.462,0,0,1,.506-.177l.983.289.151-2.309a.471.471,0,0,1,.2-.353.461.461,0,0,1,.4-.065l2.2.646L20.9,6.205a.468.468,0,0,1,.338-.42.46.46,0,0,1,.5.182l1.437,2.074a.471.471,0,0,1-.114.652.459.459,0,0,1-.644-.115l-.682-.985-.019.287a.464.464,0,0,1-.592.418l-2.2-.646-.151,2.309a.464.464,0,0,1-.592.418l-.273-.08,7.953,11.478,3.824-2.706c-.842-1.216-3.517-5.078-6.2-8.956a.472.472,0,0,1,.114-.652.459.459,0,0,1,.644.115l7.189,10.375a1.03,1.03,0,0,1-.249,1.426L27.5,23.986a1.005,1.005,0,0,1-1.411-.252Zm.306-1.19.452.653a.084.084,0,0,0,.056.036.085.085,0,0,0,.065-.015l3.682-2.605a.088.088,0,0,0,.022-.122l-.452-.653ZM18.521,4.252a.472.472,0,0,1,0-.662l1.5-1.519a.46.46,0,0,1,.655,0,.471.471,0,0,1,0,.661l-1.5,1.519a.46.46,0,0,1-.655,0Zm-6.1-.056-1.5-1.518a.472.472,0,0,1,0-.662.46.46,0,0,1,.655,0l1.5,1.519a.471.471,0,0,1,0,.661.459.459,0,0,1-.654,0Zm2.928-1.581V.468a.463.463,0,1,1,.927,0V2.615a.463.463,0,1,1-.927,0Z" transform="translate(17.006 20.314)" fill="#141414"/>
    </g>
  </g>
</svg>
