<svg xmlns="http://www.w3.org/2000/svg" width="45.723" height="45.72" viewBox="0 0 45.723 45.72">
  <path id="Union_202" data-name="Union 202" d="M15581.668-3078.279a.893.893,0,0,1-.895-.894.9.9,0,0,1,.895-.894h4.488a8.151,8.151,0,0,0-7.617-6.783c-4.3,0-8.93-1.119-8.93-3.575a1.916,1.916,0,0,1,.279-.974c.023-.04.014-.028.346-.6-2.547.374-7.412,1.836-7.412,4.251,0,1.413,1.668,2.818,4.348,3.672a6.178,6.178,0,0,1,3.6,4.006h2.857a.894.894,0,0,1,.895.894.892.892,0,0,1-.895.894h-19.734a.894.894,0,0,1-.752-.411.909.909,0,0,1-.057-.857c.545-1.18,12.408-26.924,12.588-27.323a.9.9,0,0,1,.8-.519h.012a.893.893,0,0,1,.8.5c.8,1.623,4.541,9.239,5.311,10.813l7.85-13.547a.9.9,0,0,1,.773-.447h.008a.892.892,0,0,1,.771.463l16.611,30a.9.9,0,0,1-.012.886.891.891,0,0,1-.77.438Zm-10.27-12.146c0,.576,2.822,1.787,7.141,1.787a9.921,9.921,0,0,1,9.416,8.571h8.357l-7.311-13.208-1.625,3.249a.893.893,0,0,1-.746.495h-.051a.9.9,0,0,1-.746-.4l-4.756-7.129-1.906,1.908a.89.89,0,0,1-1.373-.137l-1.924-2.883C15571.17-3090.046,15571.4-3090.461,15571.4-3090.424Zm-16.107,10.358h13.559a4.153,4.153,0,0,0-2.219-2.3c-3.5-1.115-5.59-3.124-5.59-5.375,0-3.5,5.221-5.753,10.309-6.175l.172-.3-2.2-4.477-3.545,3.547a.894.894,0,0,1-1.375-.137l-1.244-1.86Zm26.018-19.283a.9.9,0,0,1,.652.395l4.506,6.755,1.484-2.971-6.75-12.194-4.328,7.472,1.807,2.709,1.908-1.908a.894.894,0,0,1,.631-.262A.852.852,0,0,1,15581.309-3099.35Zm-17.27.3,1.248,1.868,3.2-3.2-1.98-4.03Zm12.717,19.879a.894.894,0,0,1,.891-.894.894.894,0,0,1,.893.894.891.891,0,0,1-.893.894A.891.891,0,0,1,15576.756-3079.172Zm17.5-16.61a.893.893,0,0,1,.893-.89.893.893,0,0,1,.9.89.894.894,0,0,1-.9.894A.894.894,0,0,1,15594.256-3095.783Zm-41.256,0a.891.891,0,0,1,.893-.89.894.894,0,0,1,.895.89.894.894,0,0,1-.895.894A.891.891,0,0,1,15553-3095.783Zm43.938-8.035a.892.892,0,0,1,.893-.894.891.891,0,0,1,.889.894.893.893,0,0,1-.889.894A.894.894,0,0,1,15596.938-3103.818Zm-43.937,0a.892.892,0,0,1,.893-.894.894.894,0,0,1,.895.894.9.9,0,0,1-.895.894A.894.894,0,0,1,15553-3103.818Zm35.9-2.677a.893.893,0,0,1,.893-.894.892.892,0,0,1,.895.894.891.891,0,0,1-.895.89A.892.892,0,0,1,15588.9-3106.5Zm-16.609,0a.892.892,0,0,1,.891-.894.892.892,0,0,1,.895.894.891.891,0,0,1-.895.89A.891.891,0,0,1,15572.289-3106.5Zm-13.932,0a.893.893,0,0,1,.895-.894.9.9,0,0,1,.895.894.9.9,0,0,1-.895.89A.892.892,0,0,1,15558.357-3106.5Zm28.756-5a3.577,3.577,0,0,1-3.574-3.571,3.583,3.583,0,0,1,3.205-3.555,4.928,4.928,0,0,1,4.387-2.7,4.93,4.93,0,0,1,4.387,2.7,3.576,3.576,0,0,1,3.2,3.555,3.575,3.575,0,0,1-3.57,3.571Zm-1.787-3.571a1.788,1.788,0,0,0,1.787,1.787h8.035a1.789,1.789,0,0,0,1.789-1.787,1.789,1.789,0,0,0-1.789-1.788h-.229a.893.893,0,0,1-.842-.6,3.131,3.131,0,0,0-2.947-2.081,3.125,3.125,0,0,0-2.945,2.081.9.9,0,0,1-.846.6h-.227A1.789,1.789,0,0,0,15585.326-3115.07Zm-27.416,3.571a4.915,4.915,0,0,1-4.91-4.912,4.917,4.917,0,0,1,4.91-4.911,4.851,4.851,0,0,1,1.426.213,6.282,6.282,0,0,1,5.273-2.891,6.257,6.257,0,0,1,6.2,5.459,3.575,3.575,0,0,1,2.73,3.47,3.571,3.571,0,0,1-3.57,3.571Zm-3.123-4.912a3.131,3.131,0,0,0,3.123,3.128h12.059a1.785,1.785,0,0,0,1.783-1.787,1.789,1.789,0,0,0-1.783-1.788.891.891,0,0,1-.895-.889,4.473,4.473,0,0,0-4.465-4.469,4.469,4.469,0,0,0-4.463,4.469.9.9,0,0,1-.895.889.892.892,0,0,1-.895-.889,6.258,6.258,0,0,1,.238-1.711,2.991,2.991,0,0,0-.686-.076A3.127,3.127,0,0,0,15554.787-3116.411Zm22.859,1.341a.894.894,0,0,1,.893-.894.891.891,0,0,1,.893.894.894.894,0,0,1-.893.894A.9.9,0,0,1,15577.646-3115.07Zm-2.678-5.358a.894.894,0,0,1,.895-.894.9.9,0,0,1,.893.894.893.893,0,0,1-.893.894A.892.892,0,0,1,15574.969-3120.428Zm8.035-2.677a.894.894,0,0,1,.893-.894.892.892,0,0,1,.895.894.891.891,0,0,1-.895.89A.893.893,0,0,1,15583-3123.105Z" transform="translate(-15553 3123.999)" fill="#262626"/>
</svg>
