<svg xmlns="http://www.w3.org/2000/svg" width="36.472" height="44.46" viewBox="0 0 36.472 44.46">
  <path id="Union_204" data-name="Union 204" d="M15580.914-3083.847l-9.68-4.147-9.668,4.144a3.459,3.459,0,0,1-3.357,4.312,3.481,3.481,0,0,1-3.443-3.932,3.477,3.477,0,0,1-1.765-3.017,3.475,3.475,0,0,1,3.471-3.47,3.441,3.441,0,0,1,2.8,1.42l5.349-2.289-5.337-2.289a3.414,3.414,0,0,1-3.455,1.346,3.456,3.456,0,0,1-1.064-6.417,3.481,3.481,0,0,1,3.443-3.932,3.443,3.443,0,0,1,3.35,4.308l9.676,4.147,9.668-4.144a3.462,3.462,0,0,1,3.357-4.312,3.479,3.479,0,0,1,3.443,3.932,3.479,3.479,0,0,1,1.769,3.017,3.479,3.479,0,0,1-3.475,3.474,3.437,3.437,0,0,1-2.8-1.424l-5.349,2.293,5.337,2.285a3.419,3.419,0,0,1,3.455-1.346,3.455,3.455,0,0,1,1.061,6.417,3.477,3.477,0,0,1-3.443,3.932A3.442,3.442,0,0,1,15580.914-3083.847Zm-7.473-5.094,8.94,3.834a.867.867,0,0,1,.406,1.24,1.7,1.7,0,0,0,1.472,2.59,1.737,1.737,0,0,0,1.611-2.383.867.867,0,0,1,.028-.712.874.874,0,0,1,.547-.45,1.722,1.722,0,0,0-.125-3.361,1.677,1.677,0,0,0-1.937,1.068.871.871,0,0,1-1.154.481l-7.587-3.251Zm-18.7,2.453a1.732,1.732,0,0,0,1.283,1.667.871.871,0,0,1,.579,1.162,1.736,1.736,0,0,0,1.608,2.383,1.7,1.7,0,0,0,1.475-2.59.866.866,0,0,1,.4-1.24l15.217-6.519,7.927-3.4a.872.872,0,0,1,1.154.481,1.72,1.72,0,0,0,1.612,1.111,1.739,1.739,0,0,0,1.737-1.737,1.731,1.731,0,0,0-1.288-1.667.868.868,0,0,1-.575-1.162,1.735,1.735,0,0,0-1.611-2.383,1.7,1.7,0,0,0-1.472,2.59.868.868,0,0,1-.406,1.24l-23.144,9.918a.864.864,0,0,1-1.15-.481,1.729,1.729,0,0,0-1.616-1.111A1.737,1.737,0,0,0,15554.738-3086.488Zm4.5-8.537,7.59,3.251,2.2-.943-8.944-3.834a.866.866,0,0,1-.4-1.24,1.7,1.7,0,0,0-1.475-2.59,1.735,1.735,0,0,0-1.608,2.383.87.87,0,0,1-.579,1.162,1.723,1.723,0,0,0,.129,3.361,1.678,1.678,0,0,0,1.938-1.068.864.864,0,0,1,.81-.552A.877.877,0,0,1,15559.238-3095.025Zm8.525-3.271a2.61,2.61,0,0,1-2.605-2.606v-2.719a.843.843,0,0,0-.2-.552h-.575a3.476,3.476,0,0,1-4.433-3.33,3.461,3.461,0,0,1,.731-2.117,17.174,17.174,0,0,1-.731-4.828c0-6.245,5.039-9.551,11.292-9.551s11.288,3.3,11.288,9.551a17.352,17.352,0,0,1-.731,4.828,3.467,3.467,0,0,1,.731,2.117,3.474,3.474,0,0,1-4.371,3.345h-.669a.721.721,0,0,0-.172.466v2.79a2.61,2.61,0,0,1-2.605,2.606Zm6.076-4.864v3.126h.869a.869.869,0,0,0,.868-.869v-2.79a2.446,2.446,0,0,1,1.135-2.066,1.341,1.341,0,0,1,.869-.133c.184,0,.41.008.7,0a.927.927,0,0,1,.254.035,1.736,1.736,0,0,0,2.25-1.647,1.718,1.718,0,0,0-.579-1.28.864.864,0,0,1-.215-.99,14.174,14.174,0,0,0,.794-4.676c0-5.763-4.934-7.813-9.551-7.813s-9.555,2.05-9.555,7.813a14.149,14.149,0,0,0,.794,4.676.867.867,0,0,1-.215.99,1.718,1.718,0,0,0-.579,1.28,1.738,1.738,0,0,0,1.146,1.624l.039.012c.743.254,1.021-.043,1.377-.043h1.029a2.256,2.256,0,0,1,1.62,2.289v2.719a.866.866,0,0,0,.868.869h.868v-3.126a.867.867,0,0,1,.869-.869.865.865,0,0,1,.864.869v3.126h1.737v-3.126a.87.87,0,0,1,.869-.869A.866.866,0,0,1,15573.84-3103.16Zm-1.737-3.474a.872.872,0,0,1,.869-.869.869.869,0,0,1,.868.869.866.866,0,0,1-.868.869A.87.87,0,0,1,15572.1-3106.634Zm-3.471,0a.87.87,0,0,1,.869-.869.871.871,0,0,1,.868.869.869.869,0,0,1-.868.869A.867.867,0,0,1,15568.632-3106.634Zm-4.386.724Zm11-2.52-1.17-.391a2.886,2.886,0,0,1-1.977-2.739,2.885,2.885,0,0,1,2.888-2.888h1.174a2.89,2.89,0,0,1,2.888,2.888v.391a2.887,2.887,0,0,1-2.884,2.888A2.935,2.935,0,0,1,15575.249-3108.43Zm-1.409-3.13a1.149,1.149,0,0,0,.787,1.092l1.174.391a1.151,1.151,0,0,0,1.514-1.092v-.391a1.152,1.152,0,0,0-1.15-1.15h-1.174A1.147,1.147,0,0,0,15573.84-3111.56Zm-10.419.391v-.391a2.89,2.89,0,0,1,2.888-2.888h1.17a2.89,2.89,0,0,1,2.887,2.888,2.886,2.886,0,0,1-1.972,2.739,6.971,6.971,0,0,1-2.1.54A2.887,2.887,0,0,1,15563.421-3111.169Zm1.737-.391v.391a1.151,1.151,0,0,0,1.514,1.092l1.174-.391a1.149,1.149,0,0,0,.782-1.092,1.149,1.149,0,0,0-1.149-1.15h-1.17A1.152,1.152,0,0,0,15565.158-3111.56Z" transform="translate(-15553 3123.999)" fill="#262626"/>
</svg>
