<svg xmlns="http://www.w3.org/2000/svg" width="28.014" height="44.818" viewBox="0 0 28.014 44.818">
  <path id="Union_203" data-name="Union 203" d="M15553-3093.188a14.013,14.013,0,0,1,13.133-13.976v-5.456a1.755,1.755,0,0,0-1.752-1.752,8.764,8.764,0,0,1-8.754-8.753.874.874,0,0,1,.875-.875h2.627a8.763,8.763,0,0,1,7.879,4.941,8.761,8.761,0,0,1,7.879-4.941h2.627a.871.871,0,0,1,.873.875,8.764,8.764,0,0,1-8.754,8.753,1.752,1.752,0,0,0-1.748,1.752v5.456a14.01,14.01,0,0,1,1.91.251l.027,0a14.023,14.023,0,0,1,11.191,13.722,14,14,0,0,1-1.553,6.406.873.873,0,0,1-1.18.375.876.876,0,0,1-.375-1.18,12.112,12.112,0,0,0,1.355-5.449l-3.189-.587a.876.876,0,0,1-.717-.859,1.02,1.02,0,0,0-1.02-1.02,2.782,2.782,0,0,1-2.777-2.772v-1.11a2.8,2.8,0,0,1,.82-1.958,20.5,20.5,0,0,1,2.316-1.379,12.148,12.148,0,0,0-4.717-2.354c-1.449,1.728-4.186,4.542-5.387,4.756l-1.125.2a1.022,1.022,0,0,0-.66.42c-.344.493-.1.941-.072,1.3a.972.972,0,0,1-.217,1.041.873.873,0,0,1-.875.191.831.831,0,0,1-.475-.393,2.2,2.2,0,0,0-.375,1.286,2.162,2.162,0,0,0,1.049,1.74l.016.009a4.3,4.3,0,0,1,5.068,1.428,2.536,2.536,0,0,0,2.492.992l1.646-.29a.879.879,0,0,1,1.014.71l.326,1.867a4.6,4.6,0,0,1-.789,3.51,11.148,11.148,0,0,1-1.93,2.04,3.841,3.841,0,0,0-1.684,2.681.872.872,0,0,1-.459.645,12.258,12.258,0,0,0,5.271-1.45.874.874,0,0,1,1.186.354.876.876,0,0,1-.354,1.186,14.012,14.012,0,0,1-6.639,1.673A14.023,14.023,0,0,1,15553-3093.188Zm1.754,0a12.271,12.271,0,0,0,12,12.254.893.893,0,0,1-.354-.318l-.893-1.419a2.33,2.33,0,0,0-.705-.675c-.576-.36-.848-.708-1.066-1.924a1.719,1.719,0,0,0-.709-1.12l-1.311-.917a.877.877,0,0,1-.217-1.22l.461-.656a1.73,1.73,0,0,0-.031-2.027l-1.264-1.7-4.523-1.985a2.781,2.781,0,0,1-1.107-.884A12.3,12.3,0,0,0,15554.752-3093.188Zm8.029.194.551.741a3.486,3.486,0,0,1,.1,4.015l.594.415a3.459,3.459,0,0,1,1.432,2.248,2.981,2.981,0,0,0,.172.687,4.039,4.039,0,0,1,1.256,1.146,6.869,6.869,0,0,1,1.648-1.852,9.631,9.631,0,0,0,1.656-1.73,2.9,2.9,0,0,0,.492-2.194l-.178-1-.783.139a4.282,4.282,0,0,1-4.2-1.673,2.54,2.54,0,0,0-2.047-1.031A2.586,2.586,0,0,0,15562.781-3092.994Zm10.768-7.038a1.024,1.024,0,0,0-.24.647v1.11a1.026,1.026,0,0,0,1.025,1.02,2.772,2.772,0,0,1,2.668,2.021l2.146.4a12.214,12.214,0,0,0-3.119-6.636Zm-17.191.787a2.88,2.88,0,0,1-.082,1.552.983.983,0,0,0,.566,1.192l2.293,1.008a3.883,3.883,0,0,1-.094-.726,4.1,4.1,0,0,1,1.658-3.377,1.321,1.321,0,0,1,.242-.142,2.844,2.844,0,0,1,.43-.968,2.76,2.76,0,0,1,1.789-1.141l1.1-.191a18.4,18.4,0,0,0,3.691-3.368q-.472-.037-.943-.036A12.25,12.25,0,0,0,15556.357-3099.246Zm11.535-16.412a3.461,3.461,0,0,1,1.738-.463,7.02,7.02,0,0,0,6.951-6.13h-1.7A7.015,7.015,0,0,0,15567.893-3115.657Zm-3.514-.463a3.469,3.469,0,0,1,1.74.463,7.012,7.012,0,0,0-6.992-6.59h-1.7A7.014,7.014,0,0,0,15564.379-3116.121ZM15575.5-3084a.875.875,0,0,1,.877-.875.876.876,0,0,1,.875.875.876.876,0,0,1-.875.875A.875.875,0,0,1,15575.5-3084Z" transform="translate(-15552.998 3124)" fill="#262626"/>
</svg>
