<svg xmlns="http://www.w3.org/2000/svg" width="58.281" height="44.457" viewBox="0 0 58.281 44.457">
  <path id="Union_200" data-name="Union 200" d="M15561.813-3079.7l-8.451-5.916a.858.858,0,0,1-.349-.552.859.859,0,0,1,.142-.639c.188-.266,17.392-24.836,18.172-25.953a.87.87,0,0,1,.462-.329l2.829-.823a.857.857,0,0,1,.729.117.873.873,0,0,1,.364.646l.278,4.212,4.051-1.179a.844.844,0,0,1,.729.122.856.856,0,0,1,.365.642l.191,2.943a.816.816,0,0,1-.152.544c-.745,1.066-13.769,19.668-13.854,19.79a.853.853,0,0,1-1.187.208.85.85,0,0,1-.212-1.187l5.861-8.369c-1.108-.776-5.152-3.608-7.053-4.937l-9.685,13.834,7.048,4.937,1.744-2.492a.857.857,0,0,1,1.19-.208.853.853,0,0,1,.208,1.187l-2.233,3.189a.845.845,0,0,1-.7.364A.875.875,0,0,1,15561.813-3079.7Zm10.739-31.833-6.845,9.775c1.105.772,5.152,3.608,7.053,4.937l6.841-9.775-.1-1.583-4.056,1.179a.86.86,0,0,1-.729-.121.847.847,0,0,1-.36-.643l-.278-4.212Zm28.543,30.827c-.866-1.238-16.742-23.907-17.866-25.514a.853.853,0,0,1,.008-.987.853.853,0,0,1,.933-.321l1.81.525.278-4.212a.865.865,0,0,1,.364-.643.86.86,0,0,1,.729-.122l4.051,1.179.125-1.881a.855.855,0,0,1,.623-.768.851.851,0,0,1,.929.333l2.648,3.785a.853.853,0,0,1-.207,1.187.858.858,0,0,1-1.191-.208l-1.258-1.8-.035.521a.853.853,0,0,1-1.089.764l-4.056-1.179-.278,4.216a.851.851,0,0,1-1.089.76l-.5-.145,14.661,20.938,7.052-4.937c-1.552-2.218-6.484-9.262-11.44-16.338a.851.851,0,0,1,.212-1.187.852.852,0,0,1,1.187.208c1.979,2.829,7.205,10.292,13.255,18.928a1.87,1.87,0,0,1-.458,2.6l-6.79,4.752a1.855,1.855,0,0,1-1.069.338A1.871,1.871,0,0,1,15601.1-3080.7Zm.564-2.171.834,1.191a.147.147,0,0,0,.105.067.161.161,0,0,0,.118-.028l6.79-4.752a.182.182,0,0,0,.066-.1.17.17,0,0,0-.027-.122l-.835-1.191C15607.948-3087.278,15602.346-3083.353,15601.66-3082.875Zm-14.517-33.369a.854.854,0,0,1,0-1.207l2.77-2.77a.854.854,0,0,1,1.207,0,.854.854,0,0,1,0,1.207l-2.77,2.77a.851.851,0,0,1-.6.25A.851.851,0,0,1,15587.144-3116.244Zm-11.257-.1-2.77-2.77a.854.854,0,0,1,0-1.207.859.859,0,0,1,1.211,0l2.766,2.77a.847.847,0,0,1,0,1.207.85.85,0,0,1-.6.25A.853.853,0,0,1,15575.887-3116.346Zm5.4-2.884v-3.918a.856.856,0,0,1,.854-.854.856.856,0,0,1,.854.854v3.918a.856.856,0,0,1-.854.854A.856.856,0,0,1,15581.286-3119.229Z" transform="translate(-15553.001 3124.001)" fill="#262626"/>
</svg>
