<svg xmlns="http://www.w3.org/2000/svg" width="34.017" height="44.366" viewBox="0 0 34.017 44.366">
  <path id="Union_205" data-name="Union 205" d="M15553.741-3079.632a.738.738,0,0,1-.74-.74v-23.3a3.623,3.623,0,0,1,.109-.894l3.009-12.041h-.162c-1.262,0-2.216-1.589-2.216-3.7s.954-3.7,2.216-3.7h26.624c1.263,0,2.216,1.589,2.216,3.7a4.544,4.544,0,0,1-1.034,3.16l3.144,12.577a3.672,3.672,0,0,1,.111.894v23.3a.74.74,0,0,1-.74.74Zm26.929-1.477h3.822l-1.911-1.915Zm-26.126-23.1a2.322,2.322,0,0,0-.063.537v22.562h23.664v-22.562a3.669,3.669,0,0,1,.108-.894l3.01-12.041h-23.618Zm28.777,1.652v18.181l2.217,2.217v-21.513a2.111,2.111,0,0,0-.067-.537l-2.89-11.567-2.894,11.567a2.325,2.325,0,0,0-.066.537v21.513l2.22-2.217v-18.181a.74.74,0,0,1,.74-.74A.742.742,0,0,1,15583.321-3102.555Zm-1.48-17.747c0,1.431.555,2.217.74,2.217s.74-.786.74-2.217-.558-2.22-.74-2.22S15581.841-3121.733,15581.841-3120.3Zm-26.623,0c0,1.5.6,2.217.739,2.217h24.825a5.557,5.557,0,0,1-.421-2.217,5.585,5.585,0,0,1,.421-2.22h-24.825C15555.813-3122.522,15555.218-3121.806,15555.218-3120.3Zm14.947,36.233a2.228,2.228,0,0,1-1.642-.723,2.213,2.213,0,0,1-.567-1.7l.574-8.691v-.26l-1.069-.537a.734.734,0,0,1-.407-.716c.025-.33.657-8.077,5.174-8.077a.739.739,0,0,1,.74.737v8.852l.575,8.691a2.229,2.229,0,0,1-.568,1.7,2.226,2.226,0,0,1-1.641.723Zm-.736-2.315v.024a.739.739,0,0,0,.186.568.748.748,0,0,0,.551.245h1.169a.735.735,0,0,0,.547-.245.723.723,0,0,0,.188-.568.081.081,0,0,1,0-.024l-.533-8.039h-1.571Zm-.168-13.738a16.432,16.432,0,0,0-.681,3.051l1.021.509a.744.744,0,0,1,.407.663h1.479v-7.26C15570.575-3102.811,15569.829-3101.794,15569.261-3100.121Zm-7.277,16.052a2.215,2.215,0,0,1-1.62-.7,2.209,2.209,0,0,1-.593-1.666l.617-11.525-1.393-2.785a.722.722,0,0,1-.077-.33v-2.96a.737.737,0,0,1,.736-.737.737.737,0,0,1,.74.737v2.22h1.48v-2.22a.737.737,0,0,1,.739-.737.739.739,0,0,1,.74.737v2.22h1.477v-2.22a.739.739,0,0,1,.74-.737.737.737,0,0,1,.739.737v2.96h0a.719.719,0,0,1-.074.33l-1.393,2.785.614,11.525a2.222,2.222,0,0,1-.59,1.666,2.219,2.219,0,0,1-1.623.7Zm-.737-2.283v.014a.73.73,0,0,0,.2.554.74.74,0,0,0,.54.238h1.259a.741.741,0,0,0,.543-.238.734.734,0,0,0,.2-.554v-.014l-.59-11.027h-1.558Zm.344-12.507h2.045l.74-1.477h-3.521Z" transform="translate(-15553.001 3123.998)" fill="#262626"/>
</svg>
