<svg xmlns="http://www.w3.org/2000/svg" width="102.349" height="108.802" viewBox="0 0 102.349 108.802">
  <defs>
    <style>
      .cls-1 {
        fill: #fff;
      }

      .cls-2 {
        opacity: 0.24;
      }

      .cls-3 {
        fill: #c6c6c6;
      }
    </style>
  </defs>
  <g id="Group_1164" data-name="Group 1164" transform="matrix(0.998, 0.07, -0.07, 0.998, 326.228, -5626.212)">
    <path id="Path_807" data-name="Path 807" class="cls-1" d="M.995,0h37.8a1,1,0,0,1,.995.995s2.473,13.576,3.629,25.511.995,22.23.995,22.23a1,1,0,0,1-.995.995H5.618a1,1,0,0,1-.995-.995,205.915,205.915,0,0,0-.946-21.728C2.522,15.073,0,.995,0,.995A1,1,0,0,1,.995,0Z" transform="translate(97.891 5661.097)"/>
    <path id="Path_809" data-name="Path 809" class="cls-2" d="M.849,0h32.28a.893.893,0,0,1,.849.931s2.112,12.706,3.1,23.877.849,20.806.849,20.806a.893.893,0,0,1-.849.931H4.8a.893.893,0,0,1-.849-.931s.179-9.165-.808-20.335S0,.931,0,.931A.893.893,0,0,1,.849,0Z" transform="translate(106.783 5660.009) rotate(9)"/>
    <path id="Path_808" data-name="Path 808" class="cls-1" d="M1.082,0h41.1a1.082,1.082,0,0,1,1.082,1.082s2.689,14.763,3.946,27.741S48.292,53,48.292,53a1.082,1.082,0,0,1-1.082,1.082H6.109A1.082,1.082,0,0,1,5.028,53,223.916,223.916,0,0,0,4,29.369C3.171,20.817,1.7,11.251.737,5.407.319,2.862,0,1.082,0,1.082A1.082,1.082,0,0,1,1.082,0Z" transform="translate(110.051 5651.592) rotate(9)"/>
    <path id="Path_810" data-name="Path 810" class="cls-3" d="M4.132,0H0V.346C.714.454.909.541.909,1.1V6.771c0,.562-.195.649-.909.757v.346H4.153V7.528c-.865-.108-1.06-.195-1.06-.757V4.64c.346.032.768.054,1.082.054C6,4.694,7.55,3.915,7.55,2.261,7.55.7,6.187,0,4.132,0Zm-.4,4.11A1.737,1.737,0,0,1,3.093,4V.606h.368A1.621,1.621,0,0,1,5.278,2.4C5.278,3.613,4.6,4.11,3.732,4.11Z" transform="translate(119.965 5676.456) rotate(7)"/>
    <path id="Path_811" data-name="Path 811" class="cls-3" d="M3.98,0H0V.346C.714.454.909.541.909,1.1V6.771c0,.562-.195.649-.909.757v.346H3.558c3.212,0,5.084-1.471,5.084-3.991C8.642,1.3,6.663,0,3.98,0ZM3.8,7.268a2.379,2.379,0,0,1-.7-.087V.606H3.5c1.817,0,2.758,1.06,2.758,3.439C6.262,6.187,5.495,7.268,3.8,7.268Z" transform="translate(128.909 5677.684) rotate(8)"/>
    <path id="Path_812" data-name="Path 812" class="cls-3" d="M0,0V.346C.714.454.909.541.909,1.1V6.771c0,.562-.195.649-.909.757v.346H4.132V7.528c-.8-.108-1.038-.195-1.038-.757V4.251h.649c.8,0,1.244.119,1.525.681l.119.238h.368V2.726H5.386l-.119.238c-.281.562-.725.681-1.525.681H3.093V.606H4a2.114,2.114,0,0,1,2.033.973l.368.584h.368V0Z" transform="translate(138.834 5679.265) rotate(10)"/>
  </g>
</svg>
