<svg xmlns="http://www.w3.org/2000/svg" width="65" height="65" viewBox="0 0 65 65">
  <g id="Group_1271" data-name="Group 1271" transform="translate(-259 -5059)">
    <g id="Ellipse_68" data-name="Ellipse 68" transform="translate(259 5059)" fill="#fff" stroke="#141414" stroke-width="1">
      <circle cx="32.5" cy="32.5" r="32.5" stroke="none"/>
      <circle cx="32.5" cy="32.5" r="32" fill="none"/>
    </g>
    <path id="_003-aromatherapy" data-name="003-aromatherapy" d="M111.943,17.232a.406.406,0,0,0-.5.279l-.728,2.547H109.53l.671-3.579a.406.406,0,1,0-.8-.15l-1.156,6.164h-.432l.361-3.613a.406.406,0,1,0-.808-.081L107,22.494h-.445V17.216a.406.406,0,1,0-.812,0v5.277h-.475l-1.156-6.164a.406.406,0,0,0-.8.15l1.128,6.014h-.729a1.219,1.219,0,0,0-1.218,1.218.406.406,0,0,0,.168.329l1.05.759v1.225l-1.556,2.333a.405.405,0,0,0-.067.225h0v4.271a3.074,3.074,0,0,0-.587-.549.406.406,0,0,0-.45,0,3.446,3.446,0,0,0-1.373,2.35,3.436,3.436,0,0,0-1.783-.2.406.406,0,0,0-.318.318,3.449,3.449,0,0,0,.533,2.415,3.45,3.45,0,0,0-2.043,1.322.406.406,0,0,0,0,.45,3.452,3.452,0,0,0,5.209.394,3.43,3.43,0,0,0,2.436,1h5.277a2.032,2.032,0,0,0,2.03-2.03V28.583h0a.405.405,0,0,0-.067-.225L109.4,26.024V24.8l1.05-.759a.406.406,0,0,0,.168-.329,1.219,1.219,0,0,0-1.218-1.218h-.323l.3-1.625h1.642a.406.406,0,0,0,.39-.294l.812-2.842A.406.406,0,0,0,111.943,17.232Zm-8.514,19.914a2.6,2.6,0,0,1-1.572.758,3.57,3.57,0,0,0-.151-1.048,2.653,2.653,0,0,1,2.5-1.634A2.636,2.636,0,0,1,103.429,37.146Zm-2.166,1.576h.028l-.014.009Zm.013-5.552a2.636,2.636,0,0,1,.812,1.908s0,.009,0,.014a3.547,3.547,0,0,0-.382.331,3.49,3.49,0,0,0-.43.524,3.5,3.5,0,0,0-.813-.854c0-.005,0-.01,0-.015a2.629,2.629,0,0,1,.811-1.908Zm-2.928,2.053a2.639,2.639,0,0,1,2.7,2.7,2.648,2.648,0,0,1-2.7-2.7Zm.493,4.321a2.629,2.629,0,0,1-1.909-.812,2.629,2.629,0,0,1,1.836-.811,3.416,3.416,0,0,0,1.989.8A2.629,2.629,0,0,1,98.841,39.544Zm2.955-.82a3.409,3.409,0,0,0,1.989-.8,2.63,2.63,0,0,1,1.836.811,2.649,2.649,0,0,1-3.825-.008Zm7.194.82h-3.053a3.073,3.073,0,0,0,.549-.587.406.406,0,0,0,0-.45,3.45,3.45,0,0,0-2.043-1.322,3.449,3.449,0,0,0,.533-2.415.406.406,0,0,0-.318-.318,3.43,3.43,0,0,0-1.757.192V28.989h7.307v9.337A1.219,1.219,0,0,1,108.99,39.544Zm-5.737-11.367,1.083-1.624h4.437l1.083,1.624Zm1.271-2.436v-.812h4.06v.812Zm5.236-2.207-.807.584h-4.8l-.807-.584a.406.406,0,0,1,.365-.228H109.4A.406.406,0,0,1,109.761,23.534Z" transform="translate(187.382 5063.328)" fill="#141414"/>
  </g>
</svg>
